# xmcd
#
# Track frame offsets:
#	150
#	11122
#	22752
#	34028
#	47113
#	61114
#	71714
#	85170
#	98187
#	112583
#	125779
#	140389
#	151211
#	164391
#	175958
#	187686
#	199004
#	212400
#	226421
#	237352
#	250950
#	264130
#	279074
#	293277
#	308408
#	320158
#	333310
#	335417
#	339645
#	354165
#
# Disc length: 4755 seconds
#
# Revision: 1
# Processed by: cddbd v1.5.2PL0 Copyright (c) Steve Scherf et al.
# Submitted via: EZCDAudioConverter 2.1.7.1
#
DISCID=9112911e
DTITLE=Beach Boys - Pet Sounds 50th 1/4
DYEAR=2016
DGENRE=
TTITLE0=Wouldn't It Be Nice [Mono]
TTITLE1=You Still Believe In Me [Mono]
TTITLE2=That's Not Me [Mono]
TTITLE3=Don't Talk (Put Your Head On My Shoulder) [Mono]
TTITLE4=I'm Waiting For The Day [Mono]
TTITLE5=Let's Go Away For Awhile [Mono]
TTITLE6=Sloop John B [Mono]
TTITLE7=God Only Knows [Mono]
TTITLE8=I Know There's An Answer [Mono]
TTITLE9=Here Today [Mono]
TTITLE10=I Just Wasn't Made For These Times [Mono]
TTITLE11=Pet Sounds [Mono]
TTITLE12=Caroline No [Mono]
TTITLE13=Wouldn't It Be Nice
TTITLE14=You Still Believe In Me
TTITLE15=That's Not Me
TTITLE16=Don't Talk (Put Your Head On My Shoulder)
TTITLE17=I'm Waiting For The Day
TTITLE18=Let's Go Away For Awhile
TTITLE19=Sloop John B
TTITLE20=God Only Knows
TTITLE21=I Know There's An Answer
TTITLE22=Here Today
TTITLE23=I Just Wasn't Made For These Times
TTITLE24=Pet Sounds
TTITLE25=Caroline No
TTITLE26=Caroline No [Promotional Spot #2]
TTITLE27=Don't Talk... [Unused Background Vocals]
TTITLE28=Hang On To Your Ego
TTITLE29=Caroline No [Promotional Spot #1]
EXTD=
EXTT0=
EXTT1=
EXTT2=
EXTT3=
EXTT4=
EXTT5=
EXTT6=
EXTT7=
EXTT8=
EXTT9=
EXTT10=
EXTT11=
EXTT12=
EXTT13=
EXTT14=
EXTT15=
EXTT16=
EXTT17=
EXTT18=
EXTT19=
EXTT20=
EXTT21=
EXTT22=
EXTT23=
EXTT24=
EXTT25=
EXTT26=
EXTT27=
EXTT28=
EXTT29=
PLAYORDER=
